<mxfile host="Electron" agent="Mozilla/5.0 (Windows NT 10.0; Win64; x64) AppleWebKit/537.36 (KHTML, like Gecko) draw.io/26.0.9 Chrome/128.0.6613.186 Electron/32.2.5 Safari/537.36" version="26.0.9">
  <diagram name="サイドカー" id="GY5iW_RVzcb3hvvs11iQ">
    <mxGraphModel dx="1147" dy="669" grid="1" gridSize="10" guides="1" tooltips="1" connect="1" arrows="1" fold="1" page="1" pageScale="1" pageWidth="2336" pageHeight="1654" math="0" shadow="0">
      <root>
        <mxCell id="0" />
        <mxCell id="1" parent="0" />
        <mxCell id="J_r4PYeLDRw4lh2Pbsrp-23" value="traffic" style="rounded=0;whiteSpace=wrap;html=1;fontFamily=Zen Kaku Gothic New;fontSource=https%3A%2F%2Ffonts.googleapis.com%2Fcss%3Ffamily%3DZen%2BKaku%2BGothic%2BNew;strokeColor=none;" vertex="1" parent="1">
          <mxGeometry x="410" y="180" width="60" height="20" as="geometry" />
        </mxCell>
        <mxCell id="J_r4PYeLDRw4lh2Pbsrp-31" value="&lt;span style=&quot;font-size: 18px; white-space: pre;&quot;&gt;&#x9;&lt;/span&gt;&lt;span style=&quot;font-size: 18px;&quot;&gt;Kubernetes&amp;nbsp;&lt;/span&gt;&lt;span style=&quot;font-size: 18px;&quot;&gt;Pod B&lt;/span&gt;" style="rounded=1;whiteSpace=wrap;html=1;dashed=1;align=left;verticalAlign=top;fontFamily=Zen Kaku Gothic New;fontSource=https%3A%2F%2Ffonts.googleapis.com%2Fcss%3Ffamily%3DZen%2BKaku%2BGothic%2BNew;" vertex="1" parent="1">
          <mxGeometry x="1350" y="80" width="340" height="240" as="geometry" />
        </mxCell>
        <mxCell id="J_r4PYeLDRw4lh2Pbsrp-50" value="&lt;span style=&quot;font-family: &amp;quot;Zen Kaku Gothic New&amp;quot;;&quot;&gt;&lt;font style=&quot;font-size: 14px;&quot;&gt;Service Mesh Sidecar&lt;/font&gt;&lt;/span&gt;" style="rounded=0;whiteSpace=wrap;html=1;align=left;verticalAlign=top;fillColor=#f8cecc;strokeColor=light-dark(#ce1ebd, #d7817e);" vertex="1" parent="1">
          <mxGeometry x="1540" y="120" width="140" height="160" as="geometry" />
        </mxCell>
        <mxCell id="J_r4PYeLDRw4lh2Pbsrp-29" value="&lt;font style=&quot;font-size: 18px;&quot;&gt;&lt;span style=&quot;white-space: pre;&quot;&gt;&#x9;&lt;/span&gt;Kubernetes Pod A&lt;/font&gt;" style="rounded=1;whiteSpace=wrap;html=1;dashed=1;align=left;verticalAlign=top;fontFamily=Zen Kaku Gothic New;fontSource=https%3A%2F%2Ffonts.googleapis.com%2Fcss%3Ffamily%3DZen%2BKaku%2BGothic%2BNew;" vertex="1" parent="1">
          <mxGeometry x="950" y="80" width="340" height="240" as="geometry" />
        </mxCell>
        <mxCell id="J_r4PYeLDRw4lh2Pbsrp-49" value="&lt;span style=&quot;font-family: &amp;quot;Zen Kaku Gothic New&amp;quot;;&quot;&gt;&lt;font style=&quot;font-size: 14px;&quot;&gt;Service Mesh Sidecar&lt;/font&gt;&lt;/span&gt;" style="rounded=0;whiteSpace=wrap;html=1;align=left;verticalAlign=top;fillColor=#f8cecc;strokeColor=light-dark(#c700b6, #d7817e);" vertex="1" parent="1">
          <mxGeometry x="1140" y="120" width="140" height="160" as="geometry" />
        </mxCell>
        <mxCell id="J_r4PYeLDRw4lh2Pbsrp-18" value="" style="rounded=0;whiteSpace=wrap;html=1;fillColor=#000000;fontFamily=Zen Kaku Gothic New;fontSource=https%3A%2F%2Ffonts.googleapis.com%2Fcss%3Ffamily%3DZen%2BKaku%2BGothic%2BNew;" vertex="1" parent="1">
          <mxGeometry x="245" y="365" width="190" height="110" as="geometry" />
        </mxCell>
        <mxCell id="J_r4PYeLDRw4lh2Pbsrp-1" value="&lt;font style=&quot;font-size: 18px;&quot;&gt;&lt;span style=&quot;white-space: pre;&quot;&gt;&#x9;&lt;/span&gt;Kubernetes Pod A&lt;/font&gt;" style="rounded=1;whiteSpace=wrap;html=1;dashed=1;align=left;verticalAlign=top;fontFamily=Zen Kaku Gothic New;fontSource=https%3A%2F%2Ffonts.googleapis.com%2Fcss%3Ffamily%3DZen%2BKaku%2BGothic%2BNew;" vertex="1" parent="1">
          <mxGeometry x="70" y="80" width="340" height="240" as="geometry" />
        </mxCell>
        <mxCell id="J_r4PYeLDRw4lh2Pbsrp-2" value="Microservice A" style="rounded=0;whiteSpace=wrap;html=1;fontFamily=Zen Kaku Gothic New;fontSource=https%3A%2F%2Ffonts.googleapis.com%2Fcss%3Ffamily%3DZen%2BKaku%2BGothic%2BNew;verticalAlign=top;fontSize=16;align=left;fillColor=#dae8fc;strokeColor=#6c8ebf;" vertex="1" parent="1">
          <mxGeometry x="100" y="120" width="280" height="160" as="geometry" />
        </mxCell>
        <mxCell id="J_r4PYeLDRw4lh2Pbsrp-3" value="&lt;span style=&quot;font-size: 18px; white-space: pre;&quot;&gt;&#x9;&lt;/span&gt;&lt;span style=&quot;font-size: 18px;&quot;&gt;Kubernetes&amp;nbsp;&lt;/span&gt;&lt;span style=&quot;font-size: 18px;&quot;&gt;Pod B&lt;/span&gt;" style="rounded=1;whiteSpace=wrap;html=1;dashed=1;align=left;verticalAlign=top;fontFamily=Zen Kaku Gothic New;fontSource=https%3A%2F%2Ffonts.googleapis.com%2Fcss%3Ffamily%3DZen%2BKaku%2BGothic%2BNew;" vertex="1" parent="1">
          <mxGeometry x="470" y="80" width="340" height="240" as="geometry" />
        </mxCell>
        <mxCell id="J_r4PYeLDRw4lh2Pbsrp-4" value="Microservice&amp;nbsp;B" style="rounded=0;whiteSpace=wrap;html=1;fontFamily=Zen Kaku Gothic New;fontSource=https%3A%2F%2Ffonts.googleapis.com%2Fcss%3Ffamily%3DZen%2BKaku%2BGothic%2BNew;verticalAlign=top;fontSize=16;align=left;fillColor=#ffe6cc;strokeColor=#d79b00;" vertex="1" parent="1">
          <mxGeometry x="500" y="120" width="280" height="160" as="geometry" />
        </mxCell>
        <mxCell id="J_r4PYeLDRw4lh2Pbsrp-5" value="&lt;font&gt;Application Layer&lt;/font&gt;&lt;div&gt;&lt;font&gt;&lt;br&gt;Business logic&lt;/font&gt;&lt;/div&gt;" style="rounded=0;whiteSpace=wrap;html=1;fontFamily=Zen Kaku Gothic New;fontSource=https%3A%2F%2Ffonts.googleapis.com%2Fcss%3Ffamily%3DZen%2BKaku%2BGothic%2BNew;fontSize=13;" vertex="1" parent="1">
          <mxGeometry x="110" y="160" width="120" height="80" as="geometry" />
        </mxCell>
        <mxCell id="J_r4PYeLDRw4lh2Pbsrp-6" value="&lt;font style=&quot;font-size: 13px;&quot;&gt;Infrastructure Layer&lt;/font&gt;&lt;div&gt;&lt;font style=&quot;font-size: 13px;&quot;&gt;&lt;br&gt;Traffic logic&lt;/font&gt;&lt;/div&gt;" style="rounded=0;whiteSpace=wrap;html=1;fontFamily=Zen Kaku Gothic New;fontSource=https%3A%2F%2Ffonts.googleapis.com%2Fcss%3Ffamily%3DZen%2BKaku%2BGothic%2BNew;" vertex="1" parent="1">
          <mxGeometry x="250" y="160" width="120" height="80" as="geometry" />
        </mxCell>
        <mxCell id="J_r4PYeLDRw4lh2Pbsrp-7" value="&lt;font&gt;Application Layer&lt;/font&gt;&lt;div&gt;&lt;font&gt;&lt;br&gt;Business logic&lt;/font&gt;&lt;/div&gt;" style="rounded=0;whiteSpace=wrap;html=1;fontFamily=Zen Kaku Gothic New;fontSource=https%3A%2F%2Ffonts.googleapis.com%2Fcss%3Ffamily%3DZen%2BKaku%2BGothic%2BNew;fontSize=13;" vertex="1" parent="1">
          <mxGeometry x="510" y="160" width="120" height="80" as="geometry" />
        </mxCell>
        <mxCell id="J_r4PYeLDRw4lh2Pbsrp-8" value="&lt;font style=&quot;font-size: 13px;&quot;&gt;Infrastructure Layer&lt;/font&gt;&lt;div&gt;&lt;font style=&quot;font-size: 13px;&quot;&gt;&lt;br&gt;Traffic logic&lt;/font&gt;&lt;/div&gt;" style="rounded=0;whiteSpace=wrap;html=1;fontFamily=Zen Kaku Gothic New;fontSource=https%3A%2F%2Ffonts.googleapis.com%2Fcss%3Ffamily%3DZen%2BKaku%2BGothic%2BNew;" vertex="1" parent="1">
          <mxGeometry x="650" y="160" width="120" height="80" as="geometry" />
        </mxCell>
        <mxCell id="J_r4PYeLDRw4lh2Pbsrp-10" value="" style="shape=image;verticalLabelPosition=bottom;labelBackgroundColor=default;verticalAlign=top;aspect=fixed;imageAspect=0;image=https://blogger.googleusercontent.com/img/b/R29vZ2xl/AVvXsEhGllOWEA5zH1tlPydsq8bZ7LZE4ijD4gYmobE7UlDbg-LnOpG1Kq0SvRJ6tjmciF4772uZtzJrDzPX1mX6AuXUhIZ3C18auUXkATWb7r_TOBIDO2gar839CFXYz3WA95Q-553uIj6gBgMb/s400/job_it_dokata.png;fontFamily=Zen Kaku Gothic New;fontSource=https%3A%2F%2Ffonts.googleapis.com%2Fcss%3Ffamily%3DZen%2BKaku%2BGothic%2BNew;" vertex="1" parent="1">
          <mxGeometry x="480" y="360" width="120" height="120" as="geometry" />
        </mxCell>
        <mxCell id="J_r4PYeLDRw4lh2Pbsrp-11" value="" style="shape=image;verticalLabelPosition=bottom;labelBackgroundColor=default;verticalAlign=top;aspect=fixed;imageAspect=0;image=https://blogger.googleusercontent.com/img/b/R29vZ2xl/AVvXsEiTlfwxPuLS4rgL7HjGHxjSpmYFC__fu8dlQs_amm7y8cxneMJ-ikqxrhcSCC0ktXmg1nRJF6Ao2ziFK_u4Ay3WBkhQpENrOkZkJHx951u0lMq96Clnl8oDKXBATcOO9y5wIxYE49g1ChK5/s400/computer_hacker_white1_woman.png;flipH=1;fontFamily=Zen Kaku Gothic New;fontSource=https%3A%2F%2Ffonts.googleapis.com%2Fcss%3Ffamily%3DZen%2BKaku%2BGothic%2BNew;" vertex="1" parent="1">
          <mxGeometry x="999.4" y="360" width="120.6" height="120" as="geometry" />
        </mxCell>
        <mxCell id="J_r4PYeLDRw4lh2Pbsrp-12" value="" style="shape=image;verticalLabelPosition=bottom;labelBackgroundColor=default;verticalAlign=top;aspect=fixed;imageAspect=0;image=https://blogger.googleusercontent.com/img/b/R29vZ2xl/AVvXsEgIL0bJmMB2yZ27F2mQIEpzefDGIisYpMcEjIjiD6MopIGm23PY83CvtfdYws2DBZshFmk57LylVIo91FnYBjAuRZNdFN6w6-aiK3E8Phyphenhyphen8LazNtOWHm6OpeAt_5WCGkmn8cc-ZuB8imJc/s800/hacker_white3_cry.png;fontFamily=Zen Kaku Gothic New;fontSource=https%3A%2F%2Ffonts.googleapis.com%2Fcss%3Ffamily%3DZen%2BKaku%2BGothic%2BNew;" vertex="1" parent="1">
          <mxGeometry x="120" y="360" width="91.2" height="120" as="geometry" />
        </mxCell>
        <mxCell id="J_r4PYeLDRw4lh2Pbsrp-16" value="" style="shape=flexArrow;endArrow=classic;html=1;rounded=0;entryX=0.5;entryY=1;entryDx=0;entryDy=0;exitX=0.75;exitY=0;exitDx=0;exitDy=0;fillColor=default;fontFamily=Zen Kaku Gothic New;fontSource=https%3A%2F%2Ffonts.googleapis.com%2Fcss%3Ffamily%3DZen%2BKaku%2BGothic%2BNew;" edge="1" parent="1" source="J_r4PYeLDRw4lh2Pbsrp-12" target="J_r4PYeLDRw4lh2Pbsrp-2">
          <mxGeometry width="50" height="50" relative="1" as="geometry">
            <mxPoint x="340" y="440" as="sourcePoint" />
            <mxPoint x="390" y="390" as="targetPoint" />
          </mxGeometry>
        </mxCell>
        <mxCell id="J_r4PYeLDRw4lh2Pbsrp-17" value="&lt;font data-font-src=&quot;https://fonts.googleapis.com/css?family=Zen+Kaku+Gothic+New&quot;&gt;アプリ領域とインフラ領域の分離ができず、両方の責任を負う必要がある&lt;/font&gt;" style="rounded=0;whiteSpace=wrap;html=1;align=left;fontSize=14;fontFamily=Zen Kaku Gothic New;fontSource=https%3A%2F%2Ffonts.googleapis.com%2Fcss%3Ffamily%3DZen%2BKaku%2BGothic%2BNew;" vertex="1" parent="1">
          <mxGeometry x="240" y="360" width="190" height="110" as="geometry" />
        </mxCell>
        <mxCell id="J_r4PYeLDRw4lh2Pbsrp-21" value="アプリエンジニア" style="text;html=1;align=center;verticalAlign=middle;resizable=0;points=[];autosize=1;strokeColor=none;fillColor=none;fontFamily=Zen Kaku Gothic New;fontSource=https%3A%2F%2Ffonts.googleapis.com%2Fcss%3Ffamily%3DZen%2BKaku%2BGothic%2BNew;" vertex="1" parent="1">
          <mxGeometry x="105.6" y="480" width="120" height="30" as="geometry" />
        </mxCell>
        <mxCell id="J_r4PYeLDRw4lh2Pbsrp-24" value="" style="rounded=0;whiteSpace=wrap;html=1;fillColor=#000000;fontFamily=Zen Kaku Gothic New;fontSource=https%3A%2F%2Ffonts.googleapis.com%2Fcss%3Ffamily%3DZen%2BKaku%2BGothic%2BNew;" vertex="1" parent="1">
          <mxGeometry x="605" y="365" width="190" height="110" as="geometry" />
        </mxCell>
        <mxCell id="J_r4PYeLDRw4lh2Pbsrp-25" value="&lt;font data-font-src=&quot;https://fonts.googleapis.com/css?family=Zen+Kaku+Gothic+New&quot;&gt;インフラ領域に関係のある&amp;nbsp; ロジックがサービス内部に&amp;nbsp; 組み込まれているため直接&amp;nbsp; 手出しすることができない&lt;/font&gt;" style="rounded=0;whiteSpace=wrap;html=1;align=center;fontSize=14;fontFamily=Zen Kaku Gothic New;fontSource=https%3A%2F%2Ffonts.googleapis.com%2Fcss%3Ffamily%3DZen%2BKaku%2BGothic%2BNew;" vertex="1" parent="1">
          <mxGeometry x="600" y="360" width="190" height="110" as="geometry" />
        </mxCell>
        <mxCell id="J_r4PYeLDRw4lh2Pbsrp-26" value="インフラエンジニア" style="text;html=1;align=center;verticalAlign=middle;resizable=0;points=[];autosize=1;strokeColor=none;fillColor=none;fontFamily=Zen Kaku Gothic New;fontSource=https%3A%2F%2Ffonts.googleapis.com%2Fcss%3Ffamily%3DZen%2BKaku%2BGothic%2BNew;" vertex="1" parent="1">
          <mxGeometry x="475" y="480" width="130" height="30" as="geometry" />
        </mxCell>
        <mxCell id="J_r4PYeLDRw4lh2Pbsrp-27" value="" style="shape=flexArrow;endArrow=classic;html=1;rounded=0;exitX=0.5;exitY=0;exitDx=0;exitDy=0;fillColor=default;fontFamily=Zen Kaku Gothic New;fontSource=https%3A%2F%2Ffonts.googleapis.com%2Fcss%3Ffamily%3DZen%2BKaku%2BGothic%2BNew;dashed=1;" edge="1" parent="1" source="J_r4PYeLDRw4lh2Pbsrp-10">
          <mxGeometry width="50" height="50" relative="1" as="geometry">
            <mxPoint x="544" y="350" as="sourcePoint" />
            <mxPoint x="650" y="240" as="targetPoint" />
          </mxGeometry>
        </mxCell>
        <mxCell id="J_r4PYeLDRw4lh2Pbsrp-28" value="" style="rounded=0;whiteSpace=wrap;html=1;fillColor=#000000;fontFamily=Zen Kaku Gothic New;fontSource=https%3A%2F%2Ffonts.googleapis.com%2Fcss%3Ffamily%3DZen%2BKaku%2BGothic%2BNew;" vertex="1" parent="1">
          <mxGeometry x="1125" y="365" width="190" height="110" as="geometry" />
        </mxCell>
        <mxCell id="J_r4PYeLDRw4lh2Pbsrp-30" value="Microservice A" style="rounded=0;whiteSpace=wrap;html=1;fontFamily=Zen Kaku Gothic New;fontSource=https%3A%2F%2Ffonts.googleapis.com%2Fcss%3Ffamily%3DZen%2BKaku%2BGothic%2BNew;verticalAlign=top;fontSize=16;align=left;fillColor=#dae8fc;strokeColor=#6c8ebf;" vertex="1" parent="1">
          <mxGeometry x="960" y="120" width="140" height="160" as="geometry" />
        </mxCell>
        <mxCell id="J_r4PYeLDRw4lh2Pbsrp-32" value="Microservice&amp;nbsp;B" style="rounded=0;whiteSpace=wrap;html=1;fontFamily=Zen Kaku Gothic New;fontSource=https%3A%2F%2Ffonts.googleapis.com%2Fcss%3Ffamily%3DZen%2BKaku%2BGothic%2BNew;verticalAlign=top;fontSize=16;align=left;fillColor=#ffe6cc;strokeColor=#d79b00;" vertex="1" parent="1">
          <mxGeometry x="1360" y="120" width="140" height="160" as="geometry" />
        </mxCell>
        <mxCell id="J_r4PYeLDRw4lh2Pbsrp-33" value="&lt;font&gt;Application Layer&lt;/font&gt;&lt;div&gt;&lt;font&gt;&lt;br&gt;Business logic&lt;/font&gt;&lt;/div&gt;" style="rounded=0;whiteSpace=wrap;html=1;fontFamily=Zen Kaku Gothic New;fontSource=https%3A%2F%2Ffonts.googleapis.com%2Fcss%3Ffamily%3DZen%2BKaku%2BGothic%2BNew;fontSize=13;" vertex="1" parent="1">
          <mxGeometry x="970" y="160" width="120" height="80" as="geometry" />
        </mxCell>
        <mxCell id="J_r4PYeLDRw4lh2Pbsrp-34" value="&lt;font style=&quot;font-size: 13px;&quot;&gt;Infrastructure Layer&lt;/font&gt;&lt;div&gt;&lt;font style=&quot;font-size: 13px;&quot;&gt;&lt;br&gt;Traffic logic&lt;/font&gt;&lt;/div&gt;" style="rounded=0;whiteSpace=wrap;html=1;fontFamily=Zen Kaku Gothic New;fontSource=https%3A%2F%2Ffonts.googleapis.com%2Fcss%3Ffamily%3DZen%2BKaku%2BGothic%2BNew;" vertex="1" parent="1">
          <mxGeometry x="1150" y="160" width="120" height="80" as="geometry" />
        </mxCell>
        <mxCell id="J_r4PYeLDRw4lh2Pbsrp-35" value="&lt;font&gt;Application Layer&lt;/font&gt;&lt;div&gt;&lt;font&gt;&lt;br&gt;Business logic&lt;/font&gt;&lt;/div&gt;" style="rounded=0;whiteSpace=wrap;html=1;fontFamily=Zen Kaku Gothic New;fontSource=https%3A%2F%2Ffonts.googleapis.com%2Fcss%3Ffamily%3DZen%2BKaku%2BGothic%2BNew;fontSize=13;" vertex="1" parent="1">
          <mxGeometry x="1370" y="160" width="120" height="80" as="geometry" />
        </mxCell>
        <mxCell id="J_r4PYeLDRw4lh2Pbsrp-36" value="&lt;font style=&quot;font-size: 13px;&quot;&gt;Infrastructure Layer&lt;/font&gt;&lt;div&gt;&lt;font style=&quot;font-size: 13px;&quot;&gt;&lt;br&gt;Traffic logic&lt;/font&gt;&lt;/div&gt;" style="rounded=0;whiteSpace=wrap;html=1;fontFamily=Zen Kaku Gothic New;fontSource=https%3A%2F%2Ffonts.googleapis.com%2Fcss%3Ffamily%3DZen%2BKaku%2BGothic%2BNew;" vertex="1" parent="1">
          <mxGeometry x="1550" y="160" width="120" height="80" as="geometry" />
        </mxCell>
        <mxCell id="J_r4PYeLDRw4lh2Pbsrp-38" value="" style="shape=image;verticalLabelPosition=bottom;labelBackgroundColor=default;verticalAlign=top;aspect=fixed;imageAspect=0;image=https://blogger.googleusercontent.com/img/b/R29vZ2xl/AVvXsEhGllOWEA5zH1tlPydsq8bZ7LZE4ijD4gYmobE7UlDbg-LnOpG1Kq0SvRJ6tjmciF4772uZtzJrDzPX1mX6AuXUhIZ3C18auUXkATWb7r_TOBIDO2gar839CFXYz3WA95Q-553uIj6gBgMb/s400/job_it_dokata.png;fontFamily=Zen Kaku Gothic New;fontSource=https%3A%2F%2Ffonts.googleapis.com%2Fcss%3Ffamily%3DZen%2BKaku%2BGothic%2BNew;" vertex="1" parent="1">
          <mxGeometry x="1360" y="360" width="120" height="120" as="geometry" />
        </mxCell>
        <mxCell id="J_r4PYeLDRw4lh2Pbsrp-40" value="" style="shape=flexArrow;endArrow=classic;html=1;rounded=0;exitX=0.25;exitY=0;exitDx=0;exitDy=0;fillColor=default;fontFamily=Zen Kaku Gothic New;fontSource=https%3A%2F%2Ffonts.googleapis.com%2Fcss%3Ffamily%3DZen%2BKaku%2BGothic%2BNew;entryX=0.5;entryY=1;entryDx=0;entryDy=0;" edge="1" parent="1" source="J_r4PYeLDRw4lh2Pbsrp-11" target="J_r4PYeLDRw4lh2Pbsrp-30">
          <mxGeometry width="50" height="50" relative="1" as="geometry">
            <mxPoint x="1068.4" y="360" as="sourcePoint" />
            <mxPoint x="1150" y="340" as="targetPoint" />
          </mxGeometry>
        </mxCell>
        <mxCell id="J_r4PYeLDRw4lh2Pbsrp-41" value="&lt;font style=&quot;font-size: 13px;&quot; data-font-src=&quot;https://fonts.googleapis.com/css?family=Zen+Kaku+Gothic+New&quot;&gt;トラフィックの管理を気にせずアプリ領域の開発に専念できる&lt;/font&gt;" style="rounded=0;whiteSpace=wrap;html=1;align=left;fontSize=14;fontFamily=Zen Kaku Gothic New;fontSource=https%3A%2F%2Ffonts.googleapis.com%2Fcss%3Ffamily%3DZen%2BKaku%2BGothic%2BNew;" vertex="1" parent="1">
          <mxGeometry x="1120" y="360" width="190" height="110" as="geometry" />
        </mxCell>
        <mxCell id="J_r4PYeLDRw4lh2Pbsrp-42" value="アプリエンジニア" style="text;html=1;align=center;verticalAlign=middle;resizable=0;points=[];autosize=1;strokeColor=none;fillColor=none;fontFamily=Zen Kaku Gothic New;fontSource=https%3A%2F%2Ffonts.googleapis.com%2Fcss%3Ffamily%3DZen%2BKaku%2BGothic%2BNew;" vertex="1" parent="1">
          <mxGeometry x="999.7" y="480" width="120" height="30" as="geometry" />
        </mxCell>
        <mxCell id="J_r4PYeLDRw4lh2Pbsrp-44" value="" style="rounded=0;whiteSpace=wrap;html=1;fillColor=#000000;fontFamily=Zen Kaku Gothic New;fontSource=https%3A%2F%2Ffonts.googleapis.com%2Fcss%3Ffamily%3DZen%2BKaku%2BGothic%2BNew;" vertex="1" parent="1">
          <mxGeometry x="1485" y="365" width="190" height="110" as="geometry" />
        </mxCell>
        <mxCell id="J_r4PYeLDRw4lh2Pbsrp-45" value="&lt;font style=&quot;font-size: 13px;&quot; data-font-src=&quot;https://fonts.googleapis.com/css?family=Zen+Kaku+Gothic+New&quot;&gt;サービスとプロキシが分割されアプリ領域に干渉せず管理可能&lt;/font&gt;" style="rounded=0;whiteSpace=wrap;html=1;align=center;fontSize=14;fontFamily=Zen Kaku Gothic New;fontSource=https%3A%2F%2Ffonts.googleapis.com%2Fcss%3Ffamily%3DZen%2BKaku%2BGothic%2BNew;" vertex="1" parent="1">
          <mxGeometry x="1480" y="360" width="190" height="110" as="geometry" />
        </mxCell>
        <mxCell id="J_r4PYeLDRw4lh2Pbsrp-46" value="インフラエンジニア" style="text;html=1;align=center;verticalAlign=middle;resizable=0;points=[];autosize=1;strokeColor=none;fillColor=none;fontFamily=Zen Kaku Gothic New;fontSource=https%3A%2F%2Ffonts.googleapis.com%2Fcss%3Ffamily%3DZen%2BKaku%2BGothic%2BNew;" vertex="1" parent="1">
          <mxGeometry x="1355" y="480" width="130" height="30" as="geometry" />
        </mxCell>
        <mxCell id="J_r4PYeLDRw4lh2Pbsrp-47" value="" style="shape=flexArrow;endArrow=classic;html=1;rounded=0;exitX=0.5;exitY=0;exitDx=0;exitDy=0;fillColor=default;fontFamily=Zen Kaku Gothic New;fontSource=https%3A%2F%2Ffonts.googleapis.com%2Fcss%3Ffamily%3DZen%2BKaku%2BGothic%2BNew;strokeColor=default;entryX=0.25;entryY=1;entryDx=0;entryDy=0;" edge="1" parent="1" source="J_r4PYeLDRw4lh2Pbsrp-38" target="J_r4PYeLDRw4lh2Pbsrp-50">
          <mxGeometry width="50" height="50" relative="1" as="geometry">
            <mxPoint x="1424" y="350" as="sourcePoint" />
            <mxPoint x="1530" y="240" as="targetPoint" />
          </mxGeometry>
        </mxCell>
        <mxCell id="J_r4PYeLDRw4lh2Pbsrp-52" value="" style="endArrow=classic;startArrow=classic;html=1;rounded=0;exitX=1;exitY=0.5;exitDx=0;exitDy=0;entryX=0;entryY=0.5;entryDx=0;entryDy=0;" edge="1" parent="1" source="J_r4PYeLDRw4lh2Pbsrp-30" target="J_r4PYeLDRw4lh2Pbsrp-49">
          <mxGeometry width="50" height="50" relative="1" as="geometry">
            <mxPoint x="1150" y="240" as="sourcePoint" />
            <mxPoint x="1200" y="190" as="targetPoint" />
          </mxGeometry>
        </mxCell>
        <mxCell id="J_r4PYeLDRw4lh2Pbsrp-43" value="Mesh traffic" style="rounded=0;whiteSpace=wrap;html=1;fontFamily=Zen Kaku Gothic New;fontSource=https%3A%2F%2Ffonts.googleapis.com%2Fcss%3Ffamily%3DZen%2BKaku%2BGothic%2BNew;strokeColor=none;" vertex="1" parent="1">
          <mxGeometry x="1285" y="180" width="70" height="20" as="geometry" />
        </mxCell>
        <mxCell id="J_r4PYeLDRw4lh2Pbsrp-9" value="" style="endArrow=classic;startArrow=classic;html=1;rounded=0;exitX=1;exitY=0.5;exitDx=0;exitDy=0;entryX=0;entryY=0.5;entryDx=0;entryDy=0;fontFamily=Zen Kaku Gothic New;fontSource=https%3A%2F%2Ffonts.googleapis.com%2Fcss%3Ffamily%3DZen%2BKaku%2BGothic%2BNew;" edge="1" parent="1" source="J_r4PYeLDRw4lh2Pbsrp-2" target="J_r4PYeLDRw4lh2Pbsrp-4">
          <mxGeometry width="50" height="50" relative="1" as="geometry">
            <mxPoint x="520" y="320" as="sourcePoint" />
            <mxPoint x="570" y="270" as="targetPoint" />
          </mxGeometry>
        </mxCell>
        <mxCell id="J_r4PYeLDRw4lh2Pbsrp-53" value="" style="endArrow=classic;startArrow=classic;html=1;rounded=0;exitX=0;exitY=0.5;exitDx=0;exitDy=0;entryX=1;entryY=0.5;entryDx=0;entryDy=0;" edge="1" parent="1" source="J_r4PYeLDRw4lh2Pbsrp-50" target="J_r4PYeLDRw4lh2Pbsrp-32">
          <mxGeometry width="50" height="50" relative="1" as="geometry">
            <mxPoint x="1440" y="210" as="sourcePoint" />
            <mxPoint x="1490" y="160" as="targetPoint" />
          </mxGeometry>
        </mxCell>
        <mxCell id="J_r4PYeLDRw4lh2Pbsrp-54" value="" style="endArrow=classic;startArrow=classic;html=1;rounded=0;exitX=0;exitY=0.5;exitDx=0;exitDy=0;entryX=1;entryY=0.5;entryDx=0;entryDy=0;" edge="1" parent="1" source="J_r4PYeLDRw4lh2Pbsrp-32" target="J_r4PYeLDRw4lh2Pbsrp-49">
          <mxGeometry width="50" height="50" relative="1" as="geometry">
            <mxPoint x="1440" y="210" as="sourcePoint" />
            <mxPoint x="1490" y="160" as="targetPoint" />
          </mxGeometry>
        </mxCell>
      </root>
    </mxGraphModel>
  </diagram>
</mxfile>
